<svg width="70" height="59" viewBox="0 0 70 59" fill="none" xmlns="http://www.w3.org/2000/svg">
<path d="M63.3704 0H6.55556C4.81691 0 3.14948 0.690673 1.92008 1.92008C0.690673 3.14948 0 4.81691 0 6.55556L0 52.4444C0 54.1831 0.690673 55.8505 1.92008 57.0799C3.14948 58.3093 4.81691 59 6.55556 59H63.3704C65.109 59 66.7764 58.3093 68.0059 57.0799C69.2353 55.8505 69.9259 54.1831 69.9259 52.4444V6.55556C69.9259 4.81691 69.2353 3.14948 68.0059 1.92008C66.7764 0.690673 65.109 0 63.3704 0ZM59 6.55556H63.3704V10.9259H59V6.55556ZM52.4444 6.55556H56.8148V10.9259H52.4444V6.55556ZM45.8889 6.55556H50.2593V10.9259H45.8889V6.55556ZM65.5556 52.4444C65.5556 53.024 65.3253 53.5798 64.9155 53.9896C64.5057 54.3994 63.9499 54.6296 63.3704 54.6296H6.55556C5.97601 54.6296 5.4202 54.3994 5.0104 53.9896C4.60059 53.5798 4.37037 53.024 4.37037 52.4444V17.4815H65.5556V52.4444Z" fill="#C78B8B"/>
<path d="M24.8275 22.3654L12.5905 34.6024C12.2001 35.0191 11.9883 35.5721 12.0005 36.143C11.9988 36.4305 12.054 36.7156 12.1627 36.9819C12.2714 37.2481 12.4317 37.4902 12.6342 37.6944L24.8712 49.9205L27.9633 46.8394L17.2668 36.143L27.9633 25.4574L24.8275 22.3654ZM45.0623 22.3654L41.9703 25.4574L52.6668 36.143L41.9703 46.8394L45.0623 49.9205L57.2994 37.6944C57.6925 37.275 57.9044 36.7176 57.8894 36.143C57.8898 35.5659 57.662 35.0121 57.2557 34.6024L45.0623 22.3654Z" fill="#C78B8B"/>
<path d="M35.464 22.5151L30 49.8351L34.2855 50.6922L39.7495 23.3722L35.464 22.5151Z" fill="#C78B8B"/>
</svg>
