<svg width="70" height="59" viewBox="0 0 84 83" fill="none" xmlns="http://www.w3.org/2000/svg">
<path d="M83.9721 78.6629C83.9761 78.619 84 78.5818 84 78.5379C84 78.1788 83.8404 77.8198 83.5745 77.5671L83.4681 77.4608C83.4588 77.4554 83.4495 77.4528 83.4402 77.4475L80.4708 74.6882C79.9349 74.1895 79.0918 74.2188 78.5918 74.7573C78.0918 75.2946 78.1224 76.1363 78.6609 76.6363L79.2766 77.2094H75.2235V52.808C75.2235 52.0634 74.6251 51.4783 73.8937 51.4783H68.0161C67.2714 51.4783 66.6863 52.0634 66.6863 52.808V77.2094H61.8326V57.7149C61.8326 56.9702 61.2342 56.3852 60.5029 56.3852H54.6253C53.8806 56.3852 53.2955 56.9702 53.2955 57.7149V77.2094H48.4418V65.0686C48.4418 64.3372 47.8434 63.7388 47.112 63.7388H41.2211C40.4897 63.7388 39.8913 64.3372 39.8913 65.0686V77.2094H35.051V60.1617C35.051 59.4303 34.4526 58.8319 33.7212 58.8319H27.8303C27.0989 58.8319 26.5005 59.4303 26.5005 60.1617V77.2094H21.6468V69.9755C21.6468 69.2441 21.0617 68.6457 20.317 68.6457H14.4394C13.7081 68.6457 13.1097 69.2441 13.1097 69.9755V77.2094H5.54324V4.71273L6.11903 5.3324C6.62168 5.87096 7.4621 5.90154 7.99933 5.40022C8.53656 4.90022 8.56715 4.05848 8.06715 3.52125L5.1842 0.420209C5.17223 0.405582 5.15228 0.401592 5.13765 0.388295C5.08579 0.340423 5.03393 0.29388 4.97143 0.252657C4.93154 0.212764 4.87835 0.186169 4.82516 0.159573C4.81186 0.146275 4.79856 0.146275 4.78526 0.146275C4.78393 0.144945 4.78261 0.146275 4.77995 0.144946C4.73606 0.123669 4.68952 0.113031 4.64165 0.0970736C4.61771 0.0904247 4.58979 0.0797865 4.5725 0.0797865C4.50601 0.0664887 4.46612 0.053191 4.39963 0.0398932C4.38633 0.0398932 4.37303 0.0398932 4.35974 0.0265955C4.30654 0.0132977 4.26665 0 4.21346 0C4.20016 0 4.17357 -1.23845e-08 4.14697 0.0132977C4.00336 0.0212764 3.86772 0.0558506 3.73607 0.105052C3.68421 0.123669 3.64033 0.152924 3.5898 0.17819C3.54192 0.204785 3.48873 0.220743 3.44219 0.252657C3.39432 0.291221 3.34512 0.335103 3.29725 0.378986C3.27996 0.396273 3.25336 0.401592 3.23741 0.420209L0.355781 3.52125C-0.144214 4.05848 -0.113629 4.90022 0.42493 5.40022C0.680247 5.63825 1.00604 5.7566 1.33051 5.7566C1.68689 5.7566 2.04327 5.61431 2.3039 5.3324L2.88501 4.70741V78.5379C2.88501 79.2693 3.48341 79.8677 4.21479 79.8677H14.3078C14.3477 79.881 14.4009 79.881 14.4408 79.881C14.4807 79.881 14.5338 79.881 14.5737 79.8677H20.1854C20.2253 79.881 20.2785 79.881 20.3184 79.881C20.3716 79.881 20.4115 79.881 20.4514 79.8677H27.6986C27.7385 79.881 27.7917 79.881 27.8316 79.881C27.8715 79.881 27.9247 79.881 27.9646 79.8677H33.5895C33.6294 79.881 33.6693 79.881 33.7225 79.881C33.7624 79.881 33.8156 79.881 33.8555 79.8677H41.0895C41.1294 79.881 41.1826 79.881 41.2225 79.881C41.2756 79.881 41.3155 79.881 41.3554 79.8677H46.9804C47.0203 79.881 47.0735 79.881 47.1134 79.881C47.1532 79.881 47.2064 79.881 47.2463 79.8677H54.4936C54.5335 79.881 54.5734 79.881 54.6266 79.881C54.6665 79.881 54.7197 79.881 54.7596 79.8677H60.3712C60.4111 79.881 60.451 79.881 60.5042 79.881C60.5441 79.881 60.5973 79.881 60.6372 79.8677H67.8845C67.9243 79.881 67.9775 79.881 68.0174 79.881C68.0573 79.881 68.1105 79.881 68.1504 79.8677H73.7621C73.8019 79.881 73.8551 79.881 73.895 79.881C73.9349 79.881 73.9881 79.881 74.028 79.8677H79.2899L78.6623 80.4514C78.1237 80.9514 78.0931 81.7932 78.5931 82.3304C78.8551 82.6123 79.2102 82.7546 79.5665 82.7546C79.891 82.7546 80.2155 82.6376 80.4721 82.3982L83.5559 79.5326C83.5612 79.5272 83.5705 79.5259 83.5758 79.5206C83.6423 79.4541 83.6955 79.3876 83.7487 79.3078C83.7886 79.2586 83.8192 79.1935 83.8471 79.1296C83.9202 78.9847 83.9575 78.8264 83.9721 78.6629Z" fill="#F28A3F"/>
<path d="M17.8435 53.9889C20.1573 53.9889 22.0455 52.1006 22.0455 49.7868C22.0455 48.8294 21.7264 47.9517 21.1812 47.2469L28.7609 38.138C29.3593 38.4704 30.0375 38.6566 30.7689 38.6566C31.7795 38.6566 32.7103 38.3108 33.4284 37.7124L40.064 44.747C39.9975 45.0528 39.9576 45.372 39.9576 45.7044C39.9576 48.0315 41.8459 49.9198 44.173 49.9198C46.4868 49.9198 48.3751 48.0315 48.3751 45.7044C48.3751 45.1326 48.2554 44.5874 48.056 44.0821L55.516 34.1619C56.1277 34.5077 56.8192 34.7072 57.5639 34.7072C58.4003 34.7072 59.1835 34.4545 59.8351 34.0303L67.3483 40.6699C66.9507 41.3068 66.7393 42.0369 66.7393 42.8321C66.7393 45.1592 68.6276 47.0342 70.9547 47.0342C73.2685 47.0342 75.1568 45.1592 75.1568 42.8321C75.1568 40.5183 73.2685 38.63 70.9547 38.63C70.3975 38.63 69.8935 38.7364 69.4028 38.9345L61.5013 31.9532C61.6742 31.5011 61.7673 31.0104 61.7673 30.5051C61.7673 28.178 59.879 26.2897 57.5652 26.2897C55.2381 26.2897 53.3498 28.178 53.3498 30.5051C53.3498 31.0902 53.4695 31.6487 53.6955 32.154L46.2488 42.0608C45.6371 41.7018 44.9323 41.5023 44.1743 41.5023C43.177 41.5023 42.2595 41.848 41.5414 42.4199L34.8792 35.3986C34.9457 35.0928 34.9856 34.7736 34.9856 34.4545C34.9856 32.1274 33.0973 30.2391 30.7702 30.2391C28.4564 30.2391 26.5681 32.1274 26.5681 34.4545C26.5681 35.0662 26.7011 35.638 26.9404 36.1566L18.9884 45.7443C18.6294 45.6379 18.2437 45.5847 17.8448 45.5847C15.5177 45.5847 13.6294 47.4597 13.6294 49.7868C13.6281 52.1006 15.5163 53.9889 17.8435 53.9889Z" fill="#F28A3F"/>
</svg>
