<svg width="70" height="59 viewBox="0 0 92 92" fill="none" xmlns="http://www.w3.org/2000/svg">
<path d="M83.6562 51.6V17.8187" stroke="#6F9695" stroke-width="2" stroke-miterlimit="10" stroke-linecap="round" stroke-linejoin="round"/>
<path d="M1 17.8187V75.175C1 78.9125 4.01875 81.9312 7.75625 81.9312H59.65M83.6562 17.8187H1V7.325C1 3.875 3.875 1 7.325 1H77.3312C80.7812 1 83.6562 3.875 83.6562 7.325V17.8187Z" stroke="#6F9695" stroke-width="2" stroke-miterlimit="10" stroke-linecap="round" stroke-linejoin="round"/>
<path d="M10.9188 12.7875C12.8241 12.7875 14.3688 11.3072 14.3688 9.48124C14.3688 7.65525 12.8241 6.17499 10.9188 6.17499C9.01337 6.17499 7.46875 7.65525 7.46875 9.48124C7.46875 11.3072 9.01337 12.7875 10.9188 12.7875Z" stroke="#6F9695" stroke-width="2" stroke-miterlimit="10" stroke-linecap="round" stroke-linejoin="round"/>
<path d="M21.2688 12.7875C23.1742 12.7875 24.7188 11.3072 24.7188 9.48124C24.7188 7.65525 23.1742 6.17499 21.2688 6.17499C19.3635 6.17499 17.8188 7.65525 17.8188 9.48124C17.8188 11.3072 19.3635 12.7875 21.2688 12.7875Z" stroke="#6F9695" stroke-width="2" stroke-miterlimit="10" stroke-linecap="round" stroke-linejoin="round"/>
<path d="M31.6189 12.7875C33.5243 12.7875 35.0689 11.3072 35.0689 9.48124C35.0689 7.65525 33.5243 6.17499 31.6189 6.17499C29.7136 6.17499 28.1689 7.65525 28.1689 9.48124C28.1689 11.3072 29.7136 12.7875 31.6189 12.7875Z" stroke="#6F9695" stroke-width="2" stroke-miterlimit="10" stroke-linecap="round" stroke-linejoin="round"/>
<path d="M74.7438 11.6375H45.7063C44.4126 11.6375 43.4063 10.6312 43.4063 9.33748C43.4063 8.04373 44.4126 7.03748 45.7063 7.03748H74.7438C76.0376 7.03748 77.0438 8.04373 77.0438 9.33748C77.0438 10.6312 76.0376 11.6375 74.7438 11.6375ZM36.9376 39.6687C36.9376 43.55 35.3563 47 32.6251 49.4437C30.1813 51.7437 27.0188 53.0375 23.4251 53.0375C19.8313 53.0375 16.6688 51.6 14.2251 49.4437C11.6376 47 9.9126 43.55 9.9126 39.6687C9.9126 32.1937 15.9501 26.1562 23.4251 26.1562C30.9001 26.1562 36.9376 32.1937 36.9376 39.6687Z" stroke="#6F9695" stroke-width="2" stroke-miterlimit="10" stroke-linecap="round" stroke-linejoin="round"/>
<path d="M23.4251 39.9563C25.7274 39.9563 27.5938 38.0899 27.5938 35.7875C27.5938 33.4852 25.7274 31.6188 23.4251 31.6188C21.1228 31.6188 19.2563 33.4852 19.2563 35.7875C19.2563 38.0899 21.1228 39.9563 23.4251 39.9563Z" stroke="#6F9695" stroke-width="2" stroke-miterlimit="10" stroke-linecap="round" stroke-linejoin="round"/>
<path d="M14.2251 49.4438C15.6626 45.7063 19.2563 43.1188 23.4251 43.1188C27.5938 43.1188 31.1876 45.7063 32.6251 49.4438" stroke="#6F9695" stroke-width="2" stroke-miterlimit="10" stroke-linecap="round" stroke-linejoin="round"/>
<path d="M49.7314 73.5938H8.7627" stroke="#6F9695" stroke-width="2" stroke-miterlimit="10" stroke-linecap="round" stroke-linejoin="round"/>
<path d="M47.4314 61.95H8.7627" stroke="#6F9695" stroke-width="2" stroke-miterlimit="10" stroke-linecap="round" stroke-linejoin="round"/>
<path d="M49.0125 50.3063H44.8438" stroke="#6F9695" stroke-width="2" stroke-miterlimit="10" stroke-linecap="round" stroke-linejoin="round"/>
<path d="M69.7125 38.8063H44.8438" stroke="#6F9695" stroke-width="2" stroke-miterlimit="10" stroke-linecap="round" stroke-linejoin="round"/>
<path d="M44.9873 27.1625H75.8936" stroke="#6F9695" stroke-width="2" stroke-miterlimit="10" stroke-linecap="round" stroke-linejoin="round"/>
<path d="M88.2562 53.0375C89.2624 53.325 90.1249 54.1875 90.1249 55.3375V57.925C90.1249 64.5375 88.6874 71.15 85.6687 77.1875C82.5062 83.3687 78.1937 87.825 72.4437 89.9812C71.8687 90.125 71.2937 90.125 70.8624 89.9812C65.1124 87.825 60.7999 83.3687 57.6374 77.1875C54.6187 71.2937 53.1812 64.6812 53.1812 57.925V55.3375C53.1812 54.1875 53.8999 53.325 55.0499 53.0375C61.6624 51.6 66.5499 48.8687 69.9999 44.9875C70.8624 43.9812 72.5874 43.9812 73.4499 44.9875C76.7562 48.8687 81.6437 51.6 88.2562 53.0375Z" stroke="#6F9695" stroke-width="2" stroke-miterlimit="10" stroke-linecap="round" stroke-linejoin="round"/>
<path d="M71.5813 84.95C67.7001 83.225 64.5376 79.9188 61.9501 74.8875C59.3626 70 58.0688 64.1063 58.0688 57.925V57.35C63.5313 55.9125 68.1313 53.6125 71.7251 50.3063C75.3188 53.6125 79.9188 55.9125 85.3813 57.35V57.925C85.3813 64.1063 84.0876 69.8563 81.5001 74.8875C78.6251 79.9188 75.4626 83.225 71.5813 84.95Z" stroke="#6F9695" stroke-width="2" stroke-miterlimit="10" stroke-linecap="round" stroke-linejoin="round"/>
<path d="M74.0252 68.9938L74.7439 72.0125C74.8877 72.5875 74.4564 73.1625 73.7377 73.1625H69.4252C68.8502 73.1625 68.2752 72.5875 68.4189 72.0125L69.1377 68.85C69.1377 68.5625 69.1377 68.1313 68.8502 67.9875C67.8439 67.125 67.2689 65.8313 67.5564 64.3938C67.8439 62.6688 69.2814 61.2313 71.0064 61.0875C73.4502 60.8 75.6064 62.6688 75.6064 65.1125C75.6064 66.2625 75.0314 67.4125 74.3127 68.1313C74.0252 68.4188 73.8814 68.7063 74.0252 68.9938Z" stroke="#6F9695" stroke-width="2" stroke-miterlimit="10" stroke-linecap="round" stroke-linejoin="round"/>
</svg>
