<svg width="70" height="59 viewBox="0 0 73 79" fill="none" xmlns="http://www.w3.org/2000/svg">
<path d="M62.8775 37.2067C62.1217 37.2067 61.3969 36.9065 60.8624 36.3721C60.328 35.8376 60.0277 35.1128 60.0277 34.357V26.3092C60.0277 14.9101 49.4949 5.79076 36.5455 5.79076C23.5961 5.79076 13.0633 15.024 13.0633 26.3092V34.357C13.0633 35.1128 12.7631 35.8376 12.2287 36.3721C11.6942 36.9065 10.9694 37.2067 10.2136 37.2067C9.45774 37.2067 8.73289 36.9065 8.19845 36.3721C7.66401 35.8376 7.36377 35.1128 7.36377 34.357V26.3092C7.36377 11.8095 20.4728 0 36.5455 0C52.6183 0 65.7273 11.8095 65.7273 26.3092V34.357C65.7303 34.7321 65.6587 35.104 65.5166 35.4511C65.3744 35.7982 65.1646 36.1136 64.8994 36.3788C64.6342 36.6441 64.3188 36.8539 63.9717 36.996C63.6245 37.1382 63.2526 37.2098 62.8775 37.2067Z" fill="#A343AE"/>
<path d="M55.1718 64.0175C54.416 64.0175 53.6911 63.7172 53.1567 63.1828C52.6222 62.6484 52.322 61.9235 52.322 61.1677V34.1062C52.3457 33.3663 52.6564 32.6647 53.1882 32.1498C53.7201 31.6349 54.4315 31.3472 55.1718 31.3476C64.9978 31.3476 73 38.7114 73 47.7395C73 56.7676 64.9978 64.0175 55.1718 64.0175ZM58.0216 37.2523V58.0216C60.5166 57.6085 62.7952 56.3543 64.479 54.4673C66.1627 52.5803 67.1503 50.1741 67.2776 47.6483C67.1554 45.1186 66.1701 42.707 64.4859 40.8154C62.8017 38.9238 60.5202 37.6663 58.0216 37.2523ZM17.8282 64.0175C8.00219 64.0175 0 56.6765 0 47.6483C0 38.6202 8.00219 31.3476 17.8282 31.3476C18.584 31.3476 19.3089 31.6478 19.8433 32.1823C20.3778 32.7167 20.678 33.4416 20.678 34.1974V61.1677C20.678 61.9235 20.3778 62.6484 19.8433 63.1828C19.3089 63.7172 18.584 64.0175 17.8282 64.0175ZM14.9785 37.2523C12.4798 37.6663 10.1983 38.9238 8.51414 40.8154C6.82994 42.707 5.84465 45.1186 5.72236 47.6483C5.84971 50.1741 6.83728 52.5803 8.52105 54.4673C10.2048 56.3543 12.4834 57.6085 14.9785 58.0216V37.2523Z" fill="#A343AE"/>
<path d="M54.237 73.2964H44.7985C44.0427 73.2964 43.3179 72.9962 42.7834 72.4618C42.249 71.9273 41.9487 71.2025 41.9487 70.4467C41.9487 69.6909 42.249 68.966 42.7834 68.4316C43.3179 67.8971 44.0427 67.5969 44.7985 67.5969H54.237C55.7123 67.5969 57.1272 67.0108 58.1705 65.9676C59.2137 64.9244 59.7998 63.5094 59.7998 62.0341V60.7802C59.7998 60.0244 60.1 59.2995 60.6344 58.7651C61.1689 58.2307 61.8937 57.9304 62.6495 57.9304C63.4054 57.9304 64.1302 58.2307 64.6646 58.7651C65.1991 59.2995 65.4993 60.0244 65.4993 60.7802V62.0341C65.4993 65.0211 64.3128 67.8857 62.2007 69.9978C60.0886 72.1099 57.224 73.2964 54.237 73.2964Z" fill="#A343AE"/>
<path d="M39.9199 78.6541H34.2887C32.2208 78.6541 30.2376 77.8326 28.7754 76.3704C27.3132 74.9081 26.4917 72.9249 26.4917 70.857V70.5379C26.4977 68.4739 27.3219 66.4966 28.7834 65.0393C30.245 63.582 32.2248 62.7637 34.2887 62.7637H39.9199C41.9817 62.7637 43.9591 63.5827 45.4171 65.0407C46.875 66.4986 47.6941 68.476 47.6941 70.5379V70.857C47.6941 72.921 46.8757 74.9008 45.4185 76.3623C43.9612 77.8239 41.9838 78.648 39.9199 78.6541ZM34.3343 68.4632C33.7819 68.4632 33.2519 68.681 32.8592 69.0695C32.4665 69.4579 32.2429 69.9856 32.2369 70.5379V70.857C32.2369 71.4133 32.4578 71.9468 32.8512 72.3402C33.2445 72.7335 33.778 72.9545 34.3343 72.9545H39.9199C40.4722 72.9485 40.9998 72.7249 41.3883 72.3322C41.7767 71.9395 41.9945 71.4094 41.9945 70.857V70.5379C41.9945 69.9876 41.7759 69.46 41.3869 69.0709C40.9978 68.6818 40.4701 68.4632 39.9199 68.4632H34.3343Z" fill="#A343AE"/>
</svg>
